Coordinates
version=1
nRows=10
nColumns=22
inDegrees=yes

Units are S.I. units (second, meters, Newtons, ...)
If the header above contains a line with 'inDegrees', this indicates whether rotational values are in degrees (yes) or radians (no).

endheader
time	pelvis_tilt	pelvis_list	pelvis_rotation	pelvis_tx	pelvis_ty	pelvis_tz	hip_flexion_r	hip_adduction_r	hip_rotation_r	knee_angle_r	ankle_angle_r	subtalar_angle_r	hip_flexion_l	hip_adduction_l	hip_rotation_l	knee_angle_l	ankle_angle_l	subtalar_angle_l	lumbar_extension	lumbar_bending	lumbar_rotation
      1.10000000	     -1.95603978	      0.17396585	    -11.12298945	     -0.79738714	      0.89875943	     -0.37639292	     -4.81544389	     -0.54577368	     -4.78685581	     -1.88815888	     17.05747925	     -2.23347570	     -0.82804065	     -0.71389582	    -13.89903489	    -12.99433185	     18.79287707	     -0.65594206	     -4.00833368	     -2.74611091	      3.72498597
      1.11000000	     -1.99896030	      0.18283170	    -11.07870462	     -0.79691947	      0.89864281	     -0.37720414	     -4.72715939	     -0.60621103	     -4.85148497	     -2.01482189	     17.14545371	     -2.15946091	     -0.78341503	     -0.65651905	    -13.85906089	    -13.01789734	     18.83385940	     -0.71495608	     -4.03386697	     -2.75350914	      3.73329135
      1.12000000	     -2.04640022	      0.19351755	    -11.03740125	     -0.79643625	      0.89851572	     -0.37805919	     -4.62088662	     -0.67262233	     -4.93436346	     -2.16451793	     17.25185245	     -2.07128300	     -0.73156791	     -0.59279534	    -13.80730745	    -13.04688008	     18.87717811	     -0.77442868	     -4.05276365	     -2.75291157	      3.73699223
      1.13000000	     -2.09679778	      0.20126665	    -10.98651932	     -0.79591873	      0.89838215	     -0.37894009	     -4.50469295	     -0.73777786	     -5.02214895	     -2.33596821	     17.36489386	     -1.97265144	     -0.67609126	     -0.53170853	    -13.74623174	    -13.08009187	     18.92824162	     -0.83395867	     -4.06570858	     -2.75188585	      3.74014735
      1.14000000	     -2.14873660	      0.20530608	    -10.92889984	     -0.79537549	      0.89824801	     -0.37984670	     -4.38119784	     -0.79980349	     -5.11564415	     -2.52389204	     17.48388507	     -1.87224002	     -0.61979360	     -0.47328350	    -13.68001809	    -13.11274778	     18.98481756	     -0.89256447	     -4.07702329	     -2.74640870	      3.74443083
      1.15000000	     -2.20357572	      0.20638850	    -10.86635955	     -0.79479775	      0.89810848	     -0.38078757	     -4.24469641	     -0.86100666	     -5.21878915	     -2.73588266	     17.61246087	     -1.77079756	     -0.56063865	     -0.41571000	    -13.60367377	    -13.15065452	     19.04798971	     -0.95503161	     -4.08463593	     -2.73596057	      3.75176312
      1.16000000	     -2.26379828	      0.20479398	    -10.79854256	     -0.79419092	      0.89796303	     -0.38176135	     -4.08901862	     -0.92032039	     -5.33466125	     -2.97864003	     17.75290863	     -1.66932392	     -0.49384647	     -0.35978462	    -13.51630289	    -13.19454209	     19.11805644	     -1.02804892	     -4.08609116	     -2.72075326	      3.76388301
      1.17000000	     -2.36840100	      0.21847085	    -10.70626234	     -0.79357905	      0.89775040	     -0.38279822	     -3.87496344	     -0.98804439	     -5.47120408	     -3.23962002	     17.90694090	     -1.50637005	     -0.34425428	     -0.29978071	    -13.40144181	    -13.29657371	     19.17770130	     -1.17827401	     -4.03595876	     -2.71773461	      3.77353922
      1.18000000	     -2.40543634	      0.19074634	    -10.65272828	     -0.79289506	      0.89765474	     -0.38380938	     -3.71977069	     -1.02985837	     -5.57127958	     -3.54249153	     18.02962359	     -1.45999501	     -0.32638267	     -0.25788253	    -13.30858590	    -13.31733195	     19.26768414	     -1.24613287	     -4.07112508	     -2.67454552	      3.82156769
      1.19000000	     -2.51501194	      0.21229978	    -10.55673889	     -0.79224104	      0.89743672	     -0.38493032	     -3.45525740	     -1.11272361	     -5.72158868	     -3.88874617	     18.22949038	     -1.35572473	     -0.15868200	     -0.18374557	    -13.16408329	    -13.44480061	     19.33486111	     -1.44696750	     -4.02033548	     -2.67764860	      3.84738592
